.
..............................Site Info...........................

 -   http://www.scenetime.com  *_*   

Scenetime .Always on time . friendly online private torrent community ..

     We care to share . Join us on  http://www.scenetime.com 

    Be the first to get new release at  http://www.scenetime.com

        Seed back for speed


...................................NFO:.................................................[img]http://i.imgur.com/K1tKX.jpg[/img]

[b]The.Darkest.Hour.2011.BRRip.XVID.AC3-ADTRG[/b]

In Moscow, five young people lead the charge against an alien race who have attacked Earth via our power supply. 

[url]http://www.imdb.com/title/tt1093357/[/url]

Source -  The.Darkest.Hour.2011.720p.BRRip.XVID.AC3-ADTRG   Thanks

Complete name                            : The.Darkest.Hour.2011.BRRip.XVID.AC3-ADTRG.avi
Format                                   : AVI
Format/Info                              : Audio Video Interleave
File size                                : 1.36 GiB
Duration                                 : 1h 28mn
Overall bit rate                         : 2 188 Kbps
Writing library                          : VirtualDub build 34703/release

Video
ID                                       : 0
Format                                   : MPEG-4 Visual
Codec ID                                 : XVID
Duration                                 : 1h 28mn
Bit rate                                 : 1 795 Kbps
Width                                    : 720 pixels
Height                                   : 304 pixels
Display aspect ratio                     : 2.35:1
Frame rate                               : 23.976 fps
Stream size                              : 1.12 GiB (82%)

Audio
ID                                       : 1
Format                                   : AC-3
Bit rate                                 : 384 Kbps
Channel(s)                               : 6 channels
Channel positions                        : Front: L C R, Side: L R, LFE
Sampling rate                            : 48.0 KHz
Stream size                              : 244 MiB (18%)



Encoder - LiMeY


Don't Fear the Dragon ....... Embrace it ;)

[img]http://i.imgur.com/JJYmU.jpg[/img]



Small size and great Quality from the group you can trust :)


Greetz to DragonMaster,cOOkies,Mr Geek,AnimeKing,Cush,NoWoRRiEs Rayne, Mr & Mrs IrNbRu and the rest of the crew

Respect to CM8,Goon,Hope,mSD,InfernO,legend-rg and maybe a few more ;)